<?xml version="1.0" encoding="utf-8" ?>
<svg xmlns="http://www.w3.org/2000/svg" xmlns:xlink="http://www.w3.org/1999/xlink" width="785" height="816">
	<path fill="#0B5498" transform="matrix(2.17452 0 0 2.176 0 3.05176e-05)" d="M243.079 116.099C248.675 115.586 255.751 115.813 261.043 117.824C266.422 119.869 270.07 124.742 274.132 128.604C276.656 131.004 279.344 133.349 282.064 135.524C285.503 138.275 289.462 140.592 293.344 142.65C296.364 144.252 299.676 145.711 302.325 147.892C304.578 149.748 306.129 151.933 307.316 154.589C315.984 173.995 304.12 202.657 296.557 221.028C291.4 233.557 287.382 239.545 286.099 253.715C285.073 265.045 285.679 276.421 285.905 287.771C286.01 295.341 285.944 302.913 285.708 310.48C285.556 316.687 286.014 324.335 283.728 330.147C283.006 331.982 281.981 333.55 280.096 334.344C277.421 335.471 274.005 334.781 271.43 333.742C269.771 331.594 268.907 329.018 268.32 326.395C267.131 321.075 266.942 315.473 266.396 310.058L263.684 284.282C263.103 278.602 263.026 272.472 260.758 267.159C260.003 265.391 258.874 263.14 256.944 262.437C256.174 262.156 255.486 262.219 254.765 262.608C252.564 263.795 251.67 267.418 250.986 269.701C248.636 277.544 247.542 285.865 246.181 293.928L240.67 326.426C239.532 333.249 238.631 340.206 236.618 346.838C235.774 349.622 234.495 352.807 231.761 354.228C228.62 355.859 224.575 354.824 221.406 353.815C219.968 352.304 218.928 350.579 218.627 348.488C217.805 342.761 219.264 336.602 219.919 330.913L223.594 298.135C224.628 289.161 227.574 274.037 225.938 265.501C225.769 264.617 225.587 263.931 224.821 263.414C224.522 263.428 224.216 263.457 223.931 263.552C222.093 264.166 220.908 265.924 219.839 267.435C217.711 270.445 215.969 273.756 214.127 276.947C211.067 282.227 208.038 287.525 205.039 292.841C196.55 307.665 188.236 322.587 180.099 337.606C178.993 339.454 178.178 341.47 176.831 343.172C175.243 345.178 172.779 346.295 170.267 346.544C167.685 346.8 165.009 346.198 162.991 344.514C160.29 342.26 158.949 338.247 159.305 334.798C159.944 328.605 164.403 321.181 166.977 315.488L187.637 270.067C189.879 265.081 192.731 260.279 194.665 255.173C195.356 253.348 196.048 251.12 195.779 249.144C195.647 248.179 195.083 246.812 194.268 246.233C192.947 245.293 190.611 246.303 189.41 247.135C184.221 250.726 178.784 257.744 174.257 262.385L143.944 293.04C140.139 296.917 131.707 306.942 126.728 307.828C124.483 308.227 122.254 307.422 120.45 306.107C118.079 304.378 116.106 301.588 115.664 298.648C115.243 295.839 116.535 293.509 117.954 291.181C119.81 288.135 122.229 285.527 124.463 282.763C127.247 279.275 129.991 275.757 132.697 272.209C143.321 258.399 153.815 244.49 164.179 230.485C171.686 220.287 189.498 193.106 187.525 181.014C185.793 170.405 170.084 172.993 162.587 173.823C160.034 174.101 157.472 174.292 154.905 174.395C145.427 174.821 134.107 174.519 126.091 168.771C123.968 167.249 121.446 165.036 121.083 162.273C120.94 161.18 121.28 160.043 121.968 159.184C125.08 155.292 135.193 156.437 139.975 155.399C143.798 154.57 147.512 153.101 151.231 151.898C159.122 149.345 167.042 146.863 174.6 143.409C179.888 140.993 184.929 138.009 190.119 135.388C196.912 132.029 203.816 128.899 210.819 126.004C221.334 121.564 231.58 117.101 243.079 116.099Z"/>
	<path fill="#0B5498" transform="matrix(2.17452 0 0 2.176 0 3.05176e-05)" d="M104.12 13.5475C104.638 13.5166 105.166 13.4884 105.684 13.5341C109.331 13.8562 112.951 16.9173 114.54 20.1025C116.918 24.8664 117.105 31.6818 118.011 36.9328C120.857 53.4935 123.572 70.0765 126.157 86.6801C127.16 92.7864 127.544 99.1684 128.987 105.171C129.525 107.409 130.294 109.774 131.825 111.547C132.397 112.211 133.126 112.809 134.045 112.818C135.979 112.836 137.371 110.214 137.967 108.666C140.593 101.851 141.191 93.3362 142.56 86.1259C145.069 72.9155 147.905 59.7658 150.36 46.5436C151.321 41.364 152.853 27.59 156.293 24.1748C157.773 22.7052 159.729 22.1385 161.778 22.1206C164.858 22.0936 168.251 23.1912 170.462 25.3971C172.315 27.2461 172.798 29.5934 172.912 32.1351C173.081 35.8827 172.537 39.6573 172.251 43.3902L170.91 62.2263C169.395 84.6717 167.831 107.164 167.923 129.668C157.898 132.976 147.951 137.359 137.658 139.773C133.162 140.827 128.48 140.5 123.987 141.439C118.017 142.688 112.334 145.482 108.961 150.771C106.088 155.278 104.979 161.34 106.228 166.556C107.403 171.467 110.551 175.688 114.211 179.052C127.387 191.162 146.598 190.565 163.249 189.274C164.79 189.155 168.617 188.376 169.938 189.179C169.987 189.392 170.022 189.56 170.005 189.78C169.891 191.229 168.812 193.025 168.193 194.34C161.333 208.896 151.342 221.934 141.869 234.882C137.557 240.774 132.813 247.922 127.459 252.85C122.347 253.437 117.038 252.975 111.887 253.22C107.729 253.417 103.588 254.384 99.4094 254.129C92.0959 253.683 86.9182 248.726 82.287 243.566C80.5631 241.211 78.7965 238.861 77.3752 236.305C69.7675 222.628 65.7259 204.081 63.0056 188.628C61.4955 180.05 60.3186 171.217 56.8287 163.161C51.6208 151.139 43.1321 140.354 35.6233 129.686C30.3102 122.042 25.2616 114.217 20.4863 106.226C18.1378 102.213 15.1808 97.8587 13.6689 93.4493C13.4211 92.7264 13.2259 91.9879 13.128 91.229C12.8725 89.249 13.3168 87.3096 14.5795 85.7426C15.8693 84.1418 17.8347 83.2144 19.8637 83.0298C22.0436 82.8219 24.2256 83.4047 26.0117 84.6717C30.1498 87.5936 33.1655 92.2296 36.3349 96.1128C42.8494 104.094 49.5696 111.936 56.2261 119.8C59.3008 123.432 62.0286 127.719 65.7409 130.729C67.4444 132.11 70.2864 134.281 72.6492 133.929C73.4433 133.81 74.0481 133.347 74.4721 132.679C75.7404 130.682 75.2 127.92 74.6755 125.777C72.8962 118.51 69.1718 111.524 66.1539 104.699L49.7847 67.968C47.3269 62.3903 44.1426 56.5646 42.9049 50.57C42.3539 47.9018 41.914 44.8693 43.5213 42.4721C44.9091 40.4023 47.5829 39.0553 49.9768 38.5982C52.6862 38.0809 55.2895 38.8081 57.2782 40.7359C61.2318 44.5684 63.5428 51.1561 66.023 56.0275L83.1914 89.3924C86.8677 96.6364 90.1173 104.69 94.93 111.262C96.3232 113.164 98.0223 114.365 99.9437 115.672C100.741 113.207 101.146 110.875 101.234 108.289C101.36 104.601 100.922 100.808 100.698 97.1268C100.351 90.7707 99.935 84.4186 99.4494 78.0715C98.4849 65.4294 97.8331 52.7418 96.6917 40.1163C96.2044 34.7258 94.9759 29.2667 95.0765 23.8526C95.1115 21.9707 95.305 19.7755 96.3507 18.1509C98.0699 15.4801 101.122 14.1572 104.12 13.5475Z"/>
	<path fill="#0B5498" transform="matrix(2.17452 0 0 2.176 0 3.05176e-05)" d="M57.7187 234.013C58.163 234.026 58.6071 234.049 59.0432 234.141C62.7134 234.918 64.2717 242.207 65.8643 245.172C67.1797 247.621 68.8468 249.982 70.5235 252.193C72.3101 254.548 74.1144 257.031 76.372 258.958C78.0385 260.364 79.7764 261.683 81.5788 262.91C83.7641 264.38 89.0713 266.77 90.3311 268.877C90.6776 269.456 90.727 270.095 90.5641 270.743C90.188 272.24 89.0646 273.239 87.7942 273.986C87.0348 273.99 86.3125 273.852 85.5886 273.633C74.1277 270.158 63.6519 256.839 58.1799 246.758C56.6576 243.954 54.2111 239.532 55.3058 236.306C55.7353 235.04 56.5899 234.547 57.7187 234.013Z"/>
	<path fill="#0B5498" transform="matrix(2.17452 0 0 2.176 0 3.05176e-05)" d="M334.618 147.566C335.225 147.526 335.875 147.48 336.478 147.574C337.716 147.766 338.71 148.922 339.373 149.917C342.969 155.311 343.562 168.565 343.173 175.078C342.985 178.234 342.471 181.438 341.852 184.535C341.016 188.715 339.441 195.447 335.759 197.895C335.122 197.939 334.501 197.969 333.869 197.852C332.961 197.685 332.093 197.303 331.572 196.509C331.029 195.682 331.209 194.661 331.364 193.74C331.802 191.14 332.817 188.538 333.566 186.006C334.684 182.224 335.537 178.176 335.922 174.251C336.262 170.789 336.114 167.006 335.55 163.571C335.1 160.832 331.918 151.745 332.415 149.997C332.751 148.817 333.623 148.164 334.618 147.566Z"/>
	<path fill="#0B5498" transform="matrix(2.17452 0 0 2.176 0 3.05176e-05)" d="M43.4759 240.031C44.2362 239.982 45.0991 239.873 45.8478 240.033C48.5882 240.618 50.4434 249.192 51.4928 251.738C52.295 253.684 53.3387 255.533 54.3809 257.359C57.4247 262.691 60.9309 267.207 65.762 271.019C68.0343 272.812 71.541 274.582 73.1413 277.019C73.5866 277.697 73.7756 278.505 73.5611 279.299C73.2342 280.507 72.4329 281.248 71.3795 281.843C70.3941 282.016 69.5215 282.11 68.5406 281.852C61.6047 280.022 51.2524 266.887 47.7347 260.676C45.4669 256.673 40.052 246.603 41.5163 242.004C41.8633 240.914 42.4908 240.523 43.4759 240.031Z"/>
	<path fill="#0B5498" transform="matrix(2.17452 0 0 2.176 0 3.05176e-05)" d="M316.016 143.962C317.662 143.935 318.807 144.258 320.021 145.456C325.004 150.37 326.821 165.678 326.813 172.553C326.804 179.121 326.487 189.018 321.623 193.865C320.506 194.096 319.492 194.101 318.432 193.625C315 192.083 317.876 185.658 318.502 182.956C318.884 181.307 319.01 179.55 319.173 177.865C319.839 170.975 319.661 163.801 317.435 157.189C316.316 153.863 314.841 150.648 313.666 147.335C314.187 145.842 314.804 144.948 316.016 143.962Z"/>
</svg>
